<svg xmlns="http://www.w3.org/2000/svg" width="64" height="64" viewBox="0 0 64 64">
  <!-- Speak First favicon — coral rounded square + white speech bubble -->
  <rect width="64" height="64" rx="14" fill="#E8654E"/>
  <path fill="#FBF8F4" d="M32 14c-10.5 0-19 7.4-19 16.5 0 5.2 2.8 9.8 7.1 12.8-.3 2.6-1.3 5-3 6.9-.4.4-.1 1.1.5 1.1 4.2-.2 7.8-1.7 10.5-3.7 1.3.2 2.6.4 3.9.4 10.5 0 19-7.4 19-16.5S42.5 14 32 14z"/>
  <circle cx="24" cy="30.5" r="2.6" fill="#E8654E"/>
  <circle cx="32" cy="30.5" r="2.6" fill="#E8654E"/>
  <circle cx="40" cy="30.5" r="2.6" fill="#E8654E"/>
</svg>
